<?xml version="1.0" encoding="UTF-8"?>
<svg version="1.1" xmlns="http://www.w3.org/2000/svg" width="1024" height="1024">
<path d="M0 0 C337.92 0 675.84 0 1024 0 C1024 337.92 1024 675.84 1024 1024 C686.08 1024 348.16 1024 0 1024 C0 686.08 0 348.16 0 0 Z " fill="#1F76D1" transform="translate(0,0)"/>
<path d="M0 0 C337.92 0 675.84 0 1024 0 C1024 337.92 1024 675.84 1024 1024 C686.08 1024 348.16 1024 0 1024 C0 686.08 0 348.16 0 0 Z M156 168 C117.06473603 209.34137579 113.51735447 264.81737883 113.59316695 318.58142793 C113.59794852 324.30824645 113.58534527 330.03503299 113.57514954 335.76184082 C113.55805311 346.94684185 113.55710234 358.13178648 113.56236244 369.31679717 C113.56642238 378.41776402 113.56493906 387.51871434 113.55961418 396.6196804 C113.55886576 397.92053057 113.55811734 399.22138073 113.55734624 400.5616506 C113.55581458 403.20526551 113.55427624 405.84888042 113.55273127 408.49249532 C113.54292047 426.21082827 113.53871978 443.92915416 113.54635715 461.64748859 C113.54665433 462.33833375 113.5469515 463.0291789 113.54725768 463.74095876 C113.54970589 469.34885237 113.55231784 474.95674591 113.55494181 480.56463945 C113.56504032 502.42748088 113.55668736 524.29024545 113.53344727 546.15307617 C113.50729542 570.79415346 113.49459719 595.43518276 113.50163502 620.07627457 C113.50511377 633.09449188 113.50298448 646.11264616 113.48538399 659.13085365 C113.47058659 670.21197704 113.47012435 681.29299298 113.4874549 692.37411443 C113.4959054 698.0142722 113.49826208 703.65423866 113.48280334 709.29438591 C113.36177956 756.97074796 116.78705899 807.18245155 148 846 C148.40444336 846.50982422 148.80888672 847.01964844 149.22558594 847.54492188 C176.17697996 881.33049181 216.10477649 898.27704297 258.43823124 903.28864762 C271.70759127 904.70407125 284.83827677 905.28967315 298.17526245 905.25396729 C300.09930321 905.25627967 302.02334307 905.25946135 303.94738114 905.26342177 C309.16449878 905.27167186 314.38154205 905.26768974 319.59865975 905.26144934 C325.25250485 905.25688514 330.90633801 905.26392813 336.56018066 905.26940918 C347.60902251 905.27826319 358.65783705 905.27639896 369.70667993 905.2705839 C378.69431888 905.26605116 387.68195023 905.26546145 396.66959 905.26763153 C397.95299821 905.267938 399.23640642 905.26824446 400.55870578 905.26856022 C403.16665649 905.26919972 405.77460719 905.26984815 408.38255788 905.2705054 C432.09521779 905.27603514 455.80786124 905.27031833 479.52051852 905.2598202 C501.11411013 905.25033286 522.70767813 905.25117798 544.30126953 905.26074219 C568.62327298 905.27147913 592.94526038 905.27564566 617.26726639 905.26951766 C619.86577042 905.26888062 622.46427444 905.26825188 625.06277847 905.26763153 C626.34098704 905.26732298 627.6191956 905.26701443 628.93613776 905.26669653 C637.90196653 905.26497666 646.86778688 905.26786939 655.83361435 905.27259064 C666.7758802 905.27822645 677.71811739 905.27662671 688.66037999 905.26602915 C694.2330054 905.26080824 699.80558321 905.25865384 705.37820816 905.26532745 C743.61046283 905.50055147 743.61046283 905.50055147 781.5 900.875 C782.60964111 900.66399658 783.71928223 900.45299316 784.86254883 900.2355957 C802.40663378 896.70136514 819.47285299 890.97312343 835 882 C835.5995752 881.65356445 836.19915039 881.30712891 836.81689453 880.95019531 C845.99716395 875.54246992 854.09365465 869.11899146 862 862 C862.65355469 861.41863281 863.30710937 860.83726562 863.98046875 860.23828125 C887.33523515 838.21490296 900.14342094 806.37456261 906.25 775.5 C906.40122314 774.74340088 906.55244629 773.98680176 906.70825195 773.20727539 C909.63334701 757.21752653 910.29718242 741.08242368 910.26069641 724.86869812 C910.2637259 722.92504649 910.26761933 720.98139606 910.27228898 719.03774768 C910.28247495 713.75717655 910.28041146 708.47667401 910.27610838 703.19609749 C910.27362391 697.47747531 910.28267649 691.75886893 910.29014587 686.04025269 C910.30284706 674.86046279 910.30469233 663.68069696 910.30234561 652.50090107 C910.30055727 643.40736998 910.30232312 634.31384615 910.30657005 625.22031593 C910.30716524 623.92247121 910.30776043 622.6246265 910.30837366 621.28745315 C910.3095855 618.65026865 910.31079963 616.01308415 910.31201603 613.37589965 C910.31979384 595.68950906 910.32372899 578.00312157 910.31969929 560.31672955 C910.31954291 559.62650271 910.31938654 558.93627587 910.31922542 558.22513306 C910.31841975 554.72755802 910.31757398 551.22998298 910.31671212 547.73240795 C910.31654103 547.0378977 910.31636994 546.34338746 910.31619367 545.62783144 C910.31584701 544.22336711 910.31549848 542.81890278 910.31514808 541.41443844 C910.30979216 519.56607125 910.31772265 497.71774443 910.33618164 475.86938477 C910.35694274 451.26796782 910.36758554 426.66657683 910.36360615 402.06515056 C910.36169873 389.05934114 910.36413694 376.05356849 910.37832069 363.04776573 C910.3902733 351.97658966 910.39159598 340.90547301 910.37953053 329.83429607 C910.37366922 324.19495206 910.37246575 318.55571652 910.38453293 312.91637993 C910.49043758 259.71973489 904.19492859 208.88871379 867 168 C866.20980469 167.12601563 865.41960938 166.25203125 864.60546875 165.3515625 C831.5013575 130.54558151 779.86678434 120.10525786 733.74571605 118.94320156 C728.15432671 118.85368609 722.56291021 118.86087121 716.97096252 118.86628723 C715.11041036 118.86441429 713.2498586 118.86211168 711.38930744 118.85942191 C706.32439645 118.85335713 701.25950209 118.85343116 696.1945883 118.85461628 C690.71308177 118.85482165 685.23158038 118.84928861 679.75007629 118.84455872 C669.02808481 118.83628067 658.30609884 118.83350516 647.58410443 118.83294634 C638.86047595 118.83246979 630.13684927 118.83040811 621.41322136 118.82724571 C600.65896013 118.81987621 579.90470009 118.81372006 559.15043736 118.81424427 C558.15672503 118.81426764 558.15672503 118.81426764 557.1429377 118.81429148 C553.7859485 118.81437457 550.42895931 118.81447361 547.07197011 118.81457619 C546.40537229 118.81459613 545.73877447 118.81461608 545.05197672 118.81463663 C543.70395489 118.81467706 542.35593306 118.81471886 541.00791123 118.81476202 C520.05287463 118.81537425 499.09785423 118.80787486 478.14282227 118.79418945 C454.54781452 118.77878592 430.95281454 118.77023846 407.3578009 118.77115268 C394.88450282 118.77148352 382.41122302 118.76878597 369.93792915 118.75797462 C359.31546661 118.74882589 348.69303063 118.74673 338.07056583 118.75348405 C332.66177138 118.75672743 327.25302776 118.75688588 321.84423828 118.7481308 C262.22500448 118.65787488 200.12423879 122.71459703 156 168 Z " fill="#F4F4F4" transform="translate(0,0)"/>
<path d="M0 0 C0.96115723 0.18723633 1.92231445 0.37447266 2.91259766 0.56738281 C44.12841462 8.72460654 86.6845945 24.617141 113.2578125 58.9140625 C120.03024177 69.08736534 123.76969554 78.87135633 123.60127258 91.11090088 C123.60768077 92.84749785 123.60768077 92.84749785 123.61421841 94.61917758 C123.62239841 98.46559826 123.59504404 102.31090779 123.56762695 106.15722656 C123.5634236 108.92744121 123.56679081 111.69763482 123.56983948 114.46784973 C123.57245092 120.4149533 123.55687231 126.36178085 123.52865028 132.308815 C123.48787383 140.90699267 123.47497867 149.50503798 123.46871033 158.10330185 C123.45778923 172.05608532 123.4245746 186.00872195 123.37719727 199.96142578 C123.33124494 213.50861887 123.29588087 227.05577197 123.2746582 240.60302734 C123.27334459 241.43922042 123.27203097 242.27541349 123.27067754 243.13694575 C123.26415197 247.33222191 123.25783352 251.52749835 123.25161803 255.72277498 C123.19985311 290.48195462 123.11184765 325.24096372 123 360 C121.5732803 359.05076532 120.14681655 358.10114593 118.72045898 357.15136719 C117.52887428 356.35820099 117.52887428 356.35820099 116.31321716 355.54901123 C114.35660721 354.23879668 112.41067949 352.91559086 110.47265625 351.578125 C81.86437829 331.95460836 50.66980871 320.69463983 17 313 C16.14051758 312.80277344 15.28103516 312.60554688 14.39550781 312.40234375 C-11.43731947 306.58716185 -37.09696759 305.55840552 -63.44592285 305.49468994 C-67.75060986 305.48313933 -72.05490558 305.45964724 -76.35942841 305.41999817 C-78.3452259 305.40655728 -80.33111799 305.41077477 -82.31695557 305.41540527 C-83.51721375 305.40529419 -84.71747192 305.39518311 -85.95410156 305.38476562 C-87.00454651 305.38271118 -88.05499146 305.38065674 -89.13726807 305.37854004 C-92.49063803 304.93512276 -94.32477892 304.05475464 -97 302 C-98.93557212 298.91680903 -99.25155031 296.53824871 -99.25726891 292.93026829 C-99.2637178 291.90126929 -99.27016669 290.87227029 -99.276811 289.8120895 C-99.2737138 288.68321267 -99.2706166 287.55433583 -99.26742554 286.39125061 C-99.27195665 285.19079635 -99.27648776 283.99034208 -99.28115618 282.75351042 C-99.29163917 279.42006679 -99.29312388 276.08683863 -99.29076743 272.75339377 C-99.29035967 269.15890872 -99.3013944 265.56445599 -99.31088257 261.96998596 C-99.32750172 254.92761312 -99.33299251 247.88527375 -99.33410732 240.84288294 C-99.33505726 235.11980832 -99.3391648 229.39674475 -99.34550858 223.67367363 C-99.3631226 207.45339558 -99.37234706 191.233144 -99.37084763 175.01285631 C-99.37076772 174.13825484 -99.3706878 173.26365337 -99.37060547 172.36254883 C-99.37052371 171.48688164 -99.37044195 170.61121446 -99.37035771 169.7090119 C-99.36954451 155.51210637 -99.38869032 141.31530685 -99.4168822 127.11843199 C-99.44559044 112.54676373 -99.45942367 97.97514722 -99.45769465 83.40344995 C-99.45703009 75.22025128 -99.46255135 67.03716379 -99.48405075 58.85399055 C-99.50223538 51.88778948 -99.50663229 44.92174998 -99.4930319 37.95553548 C-99.48648871 34.40043232 -99.48643324 30.8456394 -99.5037384 27.29056549 C-99.52229519 23.43880988 -99.50995 19.58751052 -99.49447632 15.73573303 C-99.50476344 14.60908692 -99.51505057 13.48244081 -99.52564943 12.3216539 C-99.45825366 4.76250858 -99.45825366 4.76250858 -97.09018898 0.82218075 C-79.38352536 -14.61409887 -21.04802716 -4.27445441 0 0 Z " fill="#1F75D1" transform="translate(376,335)"/>
<path d="M0 0 C1.49764389 -0.00299103 1.49764389 -0.00299103 3.02554321 -0.00604248 C13.03765642 -0.00377606 23.01622928 0.20145568 32.98828125 1.1484375 C33.72555954 1.20867096 34.46283783 1.26890442 35.22245789 1.33096313 C38.39652073 1.68328479 40.4718524 2.105772 43.00142241 4.10499668 C45.17335236 6.82729208 45.31338447 8.06691407 45.31586456 11.50999451 C45.32629555 12.55354379 45.33672654 13.59709307 45.34747362 14.67226505 C45.33855073 15.8173878 45.32962785 16.96251055 45.32043457 18.14233398 C45.32667453 19.35982802 45.3329145 20.57732206 45.33934355 21.83170986 C45.35255583 25.21293227 45.34777734 28.59326833 45.33539867 31.97443724 C45.32636293 35.62004393 45.34031053 39.26557214 45.35131836 42.91116333 C45.36912405 50.05351365 45.36525454 57.19569603 45.3536678 64.33805299 C45.34464178 70.14171368 45.34340586 75.94532723 45.34776306 81.74899292 C45.34837599 82.57435372 45.34898893 83.39971452 45.34962043 84.25008625 C45.35089931 85.9266832 45.35219616 87.60328014 45.3535108 89.27987707 C45.3649226 105.00893715 45.35179351 120.73790406 45.33030933 136.46694887 C45.31243779 149.96922352 45.31554173 163.47136064 45.33398438 176.97363281 C45.35538052 192.64561383 45.3638239 208.31751314 45.35153532 223.98950672 C45.3502611 225.66000683 45.34900361 227.33050695 45.34776306 229.00100708 C45.34683741 230.23395017 45.34683741 230.23395017 45.34589306 231.4918012 C45.34243638 237.28987266 45.34827532 243.08789237 45.35768127 248.88595581 C45.36888871 255.94991832 45.3658878 263.01370299 45.3445583 270.07764506 C45.33403079 273.68324241 45.3299546 277.28854304 45.34315491 280.89413834 C45.35723418 284.79881612 45.34044693 288.70300583 45.32043457 292.60766602 C45.32935746 293.75278876 45.33828034 294.89791151 45.34747362 296.07773495 C45.33182714 297.64305887 45.33182714 297.64305887 45.31586456 299.24000549 C45.31521515 300.14157159 45.31456574 301.04313768 45.31389666 301.97202396 C44.6523737 305.1424157 43.26646474 306.33360868 40.8125 308.375 C38.09115287 309.73567357 35.91929694 309.5222866 32.87255859 309.54858398 C31.62300385 309.56207382 30.3734491 309.57556366 29.08602905 309.58946228 C28.41491467 309.59452223 27.74380028 309.59958218 27.05234909 309.60479546 C24.93899755 309.62126473 22.82581963 309.64451711 20.71255493 309.66969299 C14.7020141 309.74021653 8.69139311 309.79985057 2.68066406 309.85180664 C-0.99817399 309.88408536 -4.67682643 309.92549634 -8.35551071 309.97200203 C-9.74337702 309.98776595 -11.13128612 310.00020145 -12.51921463 310.00890923 C-22.57205435 310.07276382 -32.25207029 310.94924829 -42.1875 312.375 C-43.24595123 312.52358963 -44.30440247 312.67217926 -45.39492798 312.82527161 C-89.62053673 319.13582179 -132.76515468 333.48932186 -168.86450195 360.29150391 C-171.31713575 362.10768765 -173.26577116 363.40109039 -176.1875 364.375 C-176.27912742 329.03633343 -176.34957519 293.69769097 -176.39176132 258.35893054 C-176.39676393 254.18346001 -176.40194124 250.00798971 -176.40722656 245.83251953 C-176.4082758 245.00128574 -176.40932505 244.17005194 -176.41040608 243.31362924 C-176.42779425 229.86809129 -176.45932315 216.42262199 -176.49611118 202.97712472 C-176.53356488 189.17283957 -176.5557452 175.3685903 -176.56385398 161.56425643 C-176.56933259 153.05154286 -176.58661367 144.5390234 -176.61916587 136.0263696 C-176.64036848 130.18277327 -176.6466871 124.33927675 -176.64150551 118.49564478 C-176.63895255 115.1279569 -176.64497767 111.76087903 -176.6643219 108.39320564 C-176.68431717 104.7318614 -176.67940345 101.07133765 -176.66851807 97.40997314 C-176.68016943 96.35935267 -176.6918208 95.30873219 -176.70382524 94.22627473 C-176.55842364 76.04677235 -166.52634585 62.85270746 -154.1875 50.375 C-126.53165822 23.64101962 -90.27640304 11.17045957 -53.1875 4.375 C-52.0938916 4.16327148 -51.0002832 3.95154297 -49.87353516 3.73339844 C-33.24406672 0.59031185 -16.87399867 0.00890562 0 0 Z " fill="#1F75D1" transform="translate(701.1875,330.625)"/>
<path d="M0 0 C0.90379395 0.24508301 1.80758789 0.49016602 2.73876953 0.74267578 C26.31757541 7.2620608 50.96504994 15.63950573 71 30 C71.9796875 30.69738281 72.959375 31.39476562 73.96875 32.11328125 C86.54464279 41.30702105 100.84585304 52.47604895 109 66 C109 66.66 109 67.32 109 68 C112.6681174 64.43743994 115.99527018 60.69464828 119.25 56.75 C148.61089375 21.77990498 192.03348141 4.39331603 236 -4 C236.93360352 -4.18256348 237.86720703 -4.36512695 238.82910156 -4.55322266 C241.73729277 -5.11535533 244.64847014 -5.65650888 247.5625 -6.1875 C248.399021 -6.3426709 249.23554199 -6.4978418 250.09741211 -6.65771484 C266.85555938 -9.55036822 283.6993267 -10.33253111 300.67602539 -10.26074219 C303.69632854 -10.24996851 306.71604212 -10.2607462 309.73632812 -10.2734375 C350.31778205 -10.3040008 350.31778205 -10.3040008 364.31640625 0.046875 C370.46505356 7.17987652 370.57230968 14.05973448 370.50120544 23.08787537 C370.50673984 24.39918098 370.51227424 25.71048659 370.51797634 27.06152874 C370.53269064 30.68613374 370.52257405 34.31030251 370.50823963 37.93489325 C370.49711053 41.84977486 370.50907888 45.76459625 370.51808167 49.67947388 C370.53200337 57.3429959 370.52446569 65.00635295 370.50940608 72.66986709 C370.49253014 81.59820989 370.49575829 90.52651177 370.49950016 99.45486558 C370.50537688 115.38831934 370.49121505 131.32169403 370.46655273 147.25512695 C370.44263657 162.70828211 370.43554716 178.16133162 370.44604492 193.61450195 C370.45746084 210.44934699 370.45937555 227.28414317 370.44494683 244.11898762 C370.44342102 245.91505467 370.44190066 247.71112173 370.44038582 249.5071888 C370.439628 250.39084188 370.43887019 251.27449497 370.43808941 252.18492542 C370.43335148 258.40497779 370.43519457 264.62500831 370.43945122 270.84506035 C370.44438402 278.42844648 370.43836629 286.01173284 370.41855692 293.59509616 C370.40870242 297.46254851 370.4035598 301.32984911 370.41144943 305.19730949 C370.41983415 309.39339653 370.40489281 313.58908092 370.38768005 317.78514099 C370.39669512 319.6111238 370.39669512 319.6111238 370.40589231 321.47399515 C370.34680913 329.39256829 369.48138414 336.0120612 365.25 342.8125 C358.86492233 349.0202144 351.17014396 351.29968411 342.3684082 351.28710938 C341.62751953 351.29394241 340.88663086 351.30077545 340.12329102 351.30781555 C338.52085182 351.32135402 336.91837004 351.33043902 335.31588173 351.33552551 C332.76025978 351.34388251 330.20498376 351.3644585 327.64945984 351.38806152 C322.20385892 351.4361735 316.7582219 351.46906797 311.3125 351.5 C305.03869783 351.53596625 298.76506055 351.57854105 292.49141502 351.63594055 C290.00876277 351.65559312 287.52624598 351.6642482 285.04353333 351.67224121 C269.72167916 351.77437247 254.54829383 353.18095771 239.5 356.125 C238.42322998 356.33455322 237.34645996 356.54410645 236.23706055 356.76000977 C198.88270896 364.37327484 156.98217865 379.73922634 131.375 409.3125 C126.24149274 415.16378969 120.60096231 418.40059877 112.7734375 419.23828125 C105.23280659 419.47162325 98.78783877 418.09602735 92.83984375 413.234375 C90.22946378 410.67932101 87.8186824 408.01549148 85.52539062 405.17089844 C81.19195269 399.9352857 76.62859435 396.32742042 70.875 392.75 C70.00609131 392.20061768 69.13718262 391.65123535 68.24194336 391.08520508 C65.50621168 389.37055808 62.75577593 387.68221128 60 386 C59.12907715 385.4622998 58.2581543 384.92459961 57.36083984 384.37060547 C33.00893779 369.44288494 6.84744733 361.89963114 -21 356.1875 C-21.94069336 355.99260986 -22.88138672 355.79771973 -23.85058594 355.59692383 C-38.17984849 352.79889485 -52.5008788 351.71255414 -67.07333565 351.69503975 C-69.58516609 351.69128477 -72.09663247 351.67432766 -74.60838318 351.65428162 C-81.73372632 351.59966633 -88.85911446 351.56808326 -95.98461914 351.54370117 C-100.38215303 351.52776657 -104.77941128 351.49751726 -109.17680168 351.45893669 C-110.83561202 351.44737238 -112.49447157 351.4413571 -114.15332222 351.44125557 C-125.81807033 351.44028071 -135.44522088 351.2385392 -144.34375 342.74609375 C-151.90632804 334.77328152 -151.29405967 323.42235142 -151.26069641 313.05125427 C-151.26452196 311.77907533 -151.26834751 310.50689639 -151.27228898 309.19616657 C-151.28251702 305.69021464 -151.28040055 302.18436557 -151.27610838 298.6784054 C-151.27363175 294.88763316 -151.28266678 291.09688509 -151.29014587 287.30612183 C-151.3028677 279.89024148 -151.30468981 272.47439739 -151.30234561 265.05850797 C-151.30055992 259.0300246 -151.30231745 253.0015522 -151.30657005 246.97307014 C-151.30746284 245.68429423 -151.30746284 245.68429423 -151.30837366 244.36948245 C-151.30958544 242.62388237 -151.31079958 240.87828229 -151.31201603 239.13268221 C-151.32288131 222.77922083 -151.32073354 206.42578009 -151.31463119 190.07231755 C-151.30945964 175.11869844 -151.32072553 160.16514442 -151.33972941 145.21153819 C-151.35910901 129.84413335 -151.3673638 114.4767593 -151.36360615 99.10934216 C-151.36169472 90.48682293 -151.36417633 81.86435914 -151.37832069 73.2418499 C-151.39023681 65.90372893 -151.39163658 58.56569756 -151.37953053 51.22757535 C-151.37364424 47.48566526 -151.37253552 43.74391904 -151.38453293 40.00201988 C-151.39739952 35.94180424 -151.38692187 31.88197819 -151.3742218 27.82176208 C-151.38159609 26.64471394 -151.38897037 25.46766579 -151.39656812 24.25494951 C-151.33745517 15.27229146 -150.22150271 7.30302975 -143.83984375 0.5625 C-112.90124652 -25.71231718 -35.40355501 -9.60290535 0 0 Z M-110.640625 16.765625 C-111.41533142 16.82635193 -112.19003784 16.88707886 -112.98822021 16.949646 C-117.79396703 17.45783899 -120.58240597 18.56931801 -124 22 C-125.23108434 24.46216868 -125.12756859 26.06932 -125.13142776 28.82363605 C-125.13718948 30.36116141 -125.13718948 30.36116141 -125.1430676 31.92974788 C-125.14220112 33.0644504 -125.14133463 34.19915291 -125.14044189 35.36824036 C-125.14341302 36.56698577 -125.14638414 37.76573119 -125.1494453 39.00080222 C-125.15664114 42.33870893 -125.15930582 45.67656419 -125.16004276 49.01447499 C-125.16189035 52.61034864 -125.1694362 56.20621106 -125.17617798 59.80207825 C-125.1897741 67.66981167 -125.19578804 75.53754 -125.20018864 83.40528321 C-125.20294896 88.31571387 -125.20718593 93.22614256 -125.21169281 98.13657188 C-125.22388726 111.7256206 -125.23418615 125.31466774 -125.2375679 138.90372181 C-125.23778747 139.77387147 -125.23800703 140.64402112 -125.23823325 141.54053895 C-125.23845153 142.41280016 -125.23866981 143.28506137 -125.2388947 144.18375474 C-125.23933817 145.95136058 -125.23978473 147.71896643 -125.24023438 149.48657227 C-125.2404558 150.36337045 -125.24067723 151.24016864 -125.24090537 152.14353647 C-125.24485408 166.35348033 -125.26230953 180.56337293 -125.2855939 194.77329699 C-125.30929334 209.3539365 -125.32176911 223.93455028 -125.32293582 238.51520938 C-125.32385339 246.70512761 -125.32962616 254.89497906 -125.34775543 263.08487892 C-125.36313747 270.05842321 -125.36828815 277.0318801 -125.36001733 284.00543813 C-125.35610402 287.56453064 -125.35707332 291.12344703 -125.37107468 294.68251801 C-125.38610631 298.53869148 -125.37796718 302.39461555 -125.36749268 306.25080872 C-125.37554908 307.37881907 -125.38360548 308.50682942 -125.39190602 309.6690219 C-125.38531618 310.70186205 -125.37872633 311.73470219 -125.3719368 312.79884052 C-125.37253389 313.68895999 -125.37313097 314.57907946 -125.37374616 315.49617225 C-124.91377572 318.57764005 -123.78469568 320.4688647 -122 323 C-118.82482051 325.25862488 -115.99127241 325.25071271 -112.1628418 325.25537109 C-110.98187424 325.26233002 -109.80090668 325.26928894 -108.58415222 325.27645874 C-106.66111015 325.27496323 -106.66111015 325.27496323 -104.69921875 325.2734375 C-103.34429486 325.28202326 -101.98937932 325.29203116 -100.63447571 325.30337524 C-94.9105786 325.34917725 -89.18672054 325.37404084 -83.46264648 325.38085938 C-57.62589285 325.42549872 -32.21424083 327.20638988 -7 333.3125 C-5.72713135 333.61172363 -4.4542627 333.91094727 -3.14282227 334.21923828 C31.81664808 342.60740425 66.59861848 355.64707463 94.6015625 378.890625 C95.83306532 380.10358123 95.83306532 380.10358123 97 380 C97.1145326 344.40656002 97.20259311 308.81315243 97.25532665 273.219566 C97.26157992 269.01405282 97.26805155 264.80853999 97.2746582 260.60302734 C97.27596976 259.76581232 97.27728131 258.92859729 97.2786326 258.06601211 C97.30036823 244.52345617 97.33977955 230.98100674 97.38576398 217.4385139 C97.43258001 203.53479003 97.46030626 189.6311218 97.47044247 175.72732234 C97.47729099 167.1531432 97.49889347 158.57926515 97.53958233 150.00517872 C97.56608432 144.11952102 97.5739842 138.23401818 97.56750689 132.3483052 C97.56431538 128.95619938 97.57184814 125.56503983 97.59602737 122.17295647 C97.62101973 118.48519074 97.61488086 114.798698 97.60127258 111.11090088 C97.61583679 110.05249851 97.630401 108.99409613 97.64540654 107.90362096 C97.47576995 90.81723173 87.0554015 77.41311282 75.38500977 65.91650391 C44.4648165 36.34556824 2.35416507 24.24122526 -39 18 C-40.10956055 17.81308594 -41.21912109 17.62617188 -42.36230469 17.43359375 C-52.83002119 15.80675658 -63.16660724 15.69449394 -73.74121094 15.73925781 C-76.73132843 15.74993334 -79.72083867 15.73932811 -82.7109375 15.7265625 C-92.04743972 15.71770982 -101.33872944 15.92069885 -110.640625 16.765625 Z M246 20 C244.71722168 20.25201172 243.43444336 20.50402344 242.11279297 20.76367188 C206.61181209 27.83984277 173.52426253 39.48881694 147 65 C145.77867537 66.0095627 144.55037744 67.01080329 143.3125 68 C133.28221238 76.56653751 124.11014193 90.26657091 122.72491801 103.65963566 C122.62402641 106.66835978 122.61440459 109.66387759 122.63923645 112.67420959 C122.63667318 113.82121053 122.6341099 114.96821146 122.63146895 116.14997 C122.6265435 119.97781039 122.64300412 123.80525282 122.65942383 127.63305664 C122.6619432 130.3831202 122.6599264 133.1331761 122.65809631 135.88323975 C122.65652694 141.79594575 122.66590086 147.70855206 122.68280983 153.62123299 C122.70724103 162.1698507 122.7150093 170.71842044 122.7187738 179.26706927 C122.72533184 193.13827855 122.74527538 207.00943476 122.77368164 220.88061523 C122.80123901 234.35131567 122.82246437 247.82200166 122.83520508 261.29272461 C122.83599325 262.12373186 122.83678142 262.95473912 122.83759347 263.81092841 C122.84150872 267.98004849 122.84529981 272.14916867 122.84902918 276.31828892 C122.8801049 310.87889711 122.93292301 345.43944365 123 380 C125.98112983 378.53991494 128.68145458 376.93658088 131.421875 375.05859375 C156.44672176 358.04226627 182.64034876 344.91279949 212 337 C213.17127441 336.68240723 213.17127441 336.68240723 214.36621094 336.35839844 C225.50843163 333.39993135 236.77163247 331.22946934 248.125 329.25 C249.33397949 329.03915771 250.54295898 328.82831543 251.78857422 328.61108398 C263.2535848 326.67805752 274.41961604 325.86075207 286.0479393 325.80076981 C288.16739284 325.78877845 290.28666041 325.76928798 292.40603638 325.74765015 C298.42264654 325.68664183 304.43922066 325.63183246 310.45605469 325.59863281 C314.15826585 325.57767217 317.86010743 325.54238772 321.56210709 325.49787521 C322.96463811 325.48375922 324.36723416 325.47500274 325.76983261 325.47182083 C327.72668134 325.46690312 329.68344947 325.44211928 331.64013672 325.41650391 C332.75057343 325.40841705 333.86101013 325.4003302 335.00509644 325.39199829 C338.37903678 324.95038846 340.27803282 324.01031068 343 322 C344.2386164 319.5227672 344.12872641 317.88313641 344.13422108 315.11110115 C344.14090784 313.55175038 344.14090784 313.55175038 344.14772969 311.96089756 C344.14754533 310.80994913 344.14736097 309.6590007 344.14717102 308.47317505 C344.15084771 307.25738986 344.1545244 306.04160467 344.1583125 304.7889775 C344.16745159 301.40353608 344.1720517 298.01814317 344.17470181 294.63269401 C344.17860033 290.98571246 344.18817888 287.33874502 344.19691467 283.69177246 C344.21669053 274.87976042 344.2267461 266.06774721 344.23564246 257.25571853 C344.24002299 253.10906544 344.24539035 248.96241364 344.25063133 244.81576157 C344.26764371 231.03713051 344.28213929 217.25850026 344.28938007 203.47986031 C344.29129006 199.90307743 344.29321038 196.32629457 344.29516602 192.74951172 C344.29564976 191.86048876 344.2961335 190.9714658 344.2966319 190.05550276 C344.30493745 175.64440501 344.33028316 161.23339012 344.36274669 146.82232858 C344.39578234 132.03716202 344.41382561 117.25203763 344.41702431 102.46683395 C344.41919252 94.16122861 344.42798645 85.85574416 344.45348549 77.55017471 C344.47514472 70.47886998 344.48326654 63.40771548 344.47351871 56.33638133 C344.46896021 52.72672946 344.47094935 49.11738789 344.49028015 45.50777817 C344.51103475 41.59865241 344.50097097 37.68995893 344.48774719 33.78079224 C344.49871644 32.63430525 344.50968568 31.48781826 344.52098733 30.30658925 C344.51240644 29.26180657 344.50382555 28.21702389 344.49498463 27.14058113 C344.49644984 25.78660577 344.49644984 25.78660577 344.49794465 24.40527737 C343.8332137 21.19435361 342.54363292 20.00945265 340 18 C337.28932857 17.37352204 334.92122036 16.99773177 332.17578125 16.7734375 C330.99656853 16.66145523 330.99656853 16.66145523 329.79353333 16.54721069 C319.61005324 15.6688081 309.40218874 15.6036782 299.1875 15.625 C298.15608887 15.62587616 297.12467773 15.62675232 296.06201172 15.62765503 C279.06307449 15.67510416 262.71142274 16.66006752 246 20 Z " fill="#F3F4F5" transform="translate(402,315)"/>
<path d="M0 0 C0 0.66 0 1.32 0 2 C-1.86328125 3.33203125 -1.86328125 3.33203125 -4.3125 4.8125 C-8.73759777 7.67457265 -11.2484694 9.9719511 -12.54966736 15.21470642 C-13.08204042 18.50741749 -13.1634721 21.66591083 -13.20532227 25.00219727 C-13.21521903 25.69602886 -13.2251158 26.38986046 -13.23531246 27.10471725 C-13.267051 29.42524572 -13.29185801 31.74579134 -13.31640625 34.06640625 C-13.33716096 35.73349861 -13.35820518 37.40058739 -13.3795166 39.06767273 C-13.43586604 43.61143459 -13.48517252 48.15524729 -13.53242874 52.69911194 C-13.56263658 55.57550485 -13.59447281 58.45187588 -13.62667847 61.32824707 C-13.95514816 90.96894236 -14.08266202 120.607598 -14.0625 150.25 C-14.06185799 151.19397518 -14.06121597 152.13795036 -14.0605545 153.11053085 C-14.05056412 166.43821849 -14.02915469 179.76588287 -14.00520325 193.09355164 C-13.98072 206.76949155 -13.95824397 220.44542604 -13.94658184 234.12138367 C-13.94165642 239.55064475 -13.93190174 244.97986733 -13.91815186 250.40911293 C-13.91070469 253.73298577 -13.90738129 257.05685343 -13.9051857 260.38073349 C-13.90331638 261.9134439 -13.89972081 263.44615334 -13.89425278 264.97885513 C-13.8870229 267.06974939 -13.88599941 269.16056017 -13.88647461 271.25146484 C-13.884254 272.41737152 -13.88203339 273.5832782 -13.87974548 274.78451538 C-13.99769752 277.93843411 -14.46535946 280.89454346 -15 284 C-14.61391251 286.07997932 -14.61391251 286.07997932 -14 288 C-13.88546427 289.48455679 -13.8148415 290.97289331 -13.77880859 292.46142578 C-13.75563568 293.33558136 -13.73246277 294.20973694 -13.70858765 295.11038208 C-13.67881332 296.51367264 -13.67881332 296.51367264 -13.6484375 297.9453125 C-13.62528473 298.91153534 -13.60213196 299.87775818 -13.57827759 300.8732605 C-13.5307196 302.9123631 -13.48547587 304.95152081 -13.44238281 306.99072266 C-13.37510037 310.12033144 -13.29738902 313.24956459 -13.21875 316.37890625 C-13.17385022 318.35936084 -13.12955847 320.33982933 -13.0859375 322.3203125 C-13.06203949 323.259888 -13.03814148 324.1994635 -13.01351929 325.16751099 C-12.9966507 326.03536224 -12.9797821 326.9032135 -12.96240234 327.79736328 C-12.94543304 328.56251251 -12.92846375 329.32766174 -12.91098022 330.11599731 C-13 332 -13 332 -14 334 C-14.66 334 -15.32 334 -16 334 C-16.80713631 330.45565952 -17.12660096 327.18498044 -17.13142776 323.55289841 C-17.13526891 322.46515743 -17.13911005 321.37741645 -17.1430676 320.25671363 C-17.14220112 319.06733199 -17.14133463 317.87795036 -17.14044189 316.65252686 C-17.14341302 315.38462004 -17.14638414 314.11671322 -17.1494453 312.81038499 C-17.15750283 309.29316373 -17.15930417 305.7759629 -17.16004276 302.25873351 C-17.16189548 298.46447056 -17.16944388 294.67021815 -17.17617798 290.8759613 C-17.18975269 282.58046456 -17.1957846 274.28497266 -17.20018864 265.98946667 C-17.20295236 260.80879552 -17.20718994 255.62812624 -17.21169281 250.44745636 C-17.22388405 236.10082491 -17.23418385 221.75419496 -17.2375679 207.40755844 C-17.23778747 206.48957101 -17.23800703 205.57158357 -17.23823325 204.62577833 C-17.23845153 203.70560914 -17.23866981 202.78543995 -17.2388947 201.83738685 C-17.23933817 199.97280868 -17.23978473 198.10823051 -17.24023438 196.24365234 C-17.2404558 195.31875945 -17.24067723 194.39386656 -17.24090537 193.44094661 C-17.24485332 178.45468051 -17.2623079 163.46846304 -17.2855939 148.48221573 C-17.30931382 133.09237316 -17.32177003 117.70255498 -17.32293582 102.31269383 C-17.32385219 93.67332768 -17.32959494 85.0340249 -17.34775543 76.39467621 C-17.36316502 69.03814129 -17.3682718 61.68168933 -17.36001733 54.32514134 C-17.35611394 50.57313539 -17.35702514 46.82129647 -17.37107468 43.06931114 C-17.38618069 38.99788971 -17.377938 34.9268437 -17.36749268 30.85540771 C-17.37554908 29.67494897 -17.38360548 28.49449022 -17.39190602 27.27825999 C-17.33598301 17.95890675 -16.05439733 10.38465472 -9.55078125 3.4453125 C-4.3118779 -1.43729263 -4.3118779 -1.43729263 0 0 Z " fill="#F9F9FB" transform="translate(268,312)"/>
<path d="M0 0 C5.28757925 0.00228903 10.57515536 -0.00124262 15.86273396 -0.00397992 C26.18456428 -0.0083987 36.50638728 -0.00747883 46.82821787 -0.00456728 C55.22040965 -0.00229896 63.61259938 -0.00200689 72.00479138 -0.0030911 C73.80370437 -0.00332095 73.80370437 -0.00332095 75.63895903 -0.00355544 C78.07596398 -0.00387519 80.51296893 -0.00419941 82.94997387 -0.00452803 C105.73413397 -0.00737113 128.51829002 -0.00411364 151.30244946 0.00127234 C170.82527255 0.00574447 190.34808969 0.0049588 209.87091267 0.00035357 C232.59351299 -0.005004 255.31610979 -0.00710195 278.03871065 -0.00403416 C280.46345973 -0.00371564 282.88820881 -0.00340127 285.31295788 -0.0030911 C286.50571976 -0.00293682 287.69848164 -0.00278255 288.92738782 -0.0026236 C297.30790204 -0.00176238 305.68841401 -0.00321269 314.06892788 -0.00557065 C324.28341169 -0.00838176 334.49788782 -0.00760254 344.71237076 -0.00228991 C349.91744086 0.00032862 355.12249818 0.00138357 360.32756817 -0.00193906 C365.10089113 -0.00493994 369.87418958 -0.00324669 374.64751034 0.00203849 C376.36507113 0.00314654 378.08263403 0.00260778 379.80019344 0.00016271 C390.42642354 -0.01379285 400.95923351 0.33606676 411.55670369 1.13072467 C411.55670369 1.46072467 411.55670369 1.79072467 411.55670369 2.13072467 C410.59323037 2.1320812 409.62975706 2.13343773 408.63708758 2.13483536 C351.45155721 2.21552353 294.26605048 2.30659611 237.08055792 2.41077628 C230.20427983 2.4233008 223.32800157 2.43572937 216.45172322 2.44810748 C215.42538136 2.44995747 215.42538136 2.44995747 214.37830533 2.45184483 C192.24921364 2.49168775 170.12011793 2.52520998 147.99101116 2.55541158 C124.58004608 2.58739729 101.16910496 2.62667614 77.75816393 2.67351472 C63.75165381 2.70130562 49.7451592 2.7233791 35.73862903 2.73798718 C26.11561356 2.74858216 16.49262823 2.76645973 6.86963554 2.7898917 C1.32932714 2.80317266 -4.21093929 2.81340848 -9.75126445 2.81493831 C-30.64538685 2.82257859 -51.34518136 2.91425562 -72.156129 4.94836235 C-75.26580249 5.19630541 -78.32562938 5.19804783 -81.44329631 5.13072467 C-68.59421338 -7.71835826 -17.66683577 -0.01134268 0 0 Z " fill="#FDFCFB" transform="translate(332.4432963132858,116.86927533149719)"/>
<path d="M0 0 C1.12167068 0.01093689 2.24334137 0.02187378 3.39900208 0.03314209 C5.30446053 0.0487619 5.30446053 0.0487619 7.24841309 0.06469727 C8.65384045 0.08198476 10.05926138 0.09980156 11.4646759 0.11810303 C12.91269877 0.13481829 14.36072226 0.15148002 15.80874634 0.16809082 C18.86477345 0.20469515 21.92070397 0.24589034 24.97663879 0.28948975 C28.06905965 0.33289468 31.16136896 0.36774669 34.25398254 0.39398193 C51.85963036 0.54515607 69.08796278 1.04905191 86.48420715 4.10247803 C85.82420715 5.09247803 85.16420715 6.08247803 84.48420715 7.10247803 C83.90420959 7.01683594 83.32421204 6.93119385 82.72663879 6.84295654 C61.02766136 3.80464837 39.34269012 3.63858384 17.46296692 3.48162842 C16.22830688 3.46955353 14.99364685 3.45747864 13.72157288 3.44503784 C11.36783965 3.42278604 9.01400624 3.40910041 6.66017151 3.40493774 C5.61186157 3.39463531 4.56355164 3.38433289 3.48347473 3.37371826 C2.56278702 3.36944321 1.6420993 3.36516815 0.69351196 3.36076355 C-1.51579285 3.10247803 -1.51579285 3.10247803 -3.51579285 1.10247803 C-2.51579285 0.10247803 -2.51579285 0.10247803 0 0 Z " fill="#FBFCFC" transform="translate(283.5157928466797,638.8975219726563)"/>
<path d="M0 0 C1.26077866 0.00007553 2.52155731 0.00015106 3.82054138 0.00022888 C5.17601563 0.00533389 6.53148947 0.01054986 7.88696289 0.01586914 C9.28943328 0.01773685 10.69190433 0.01915909 12.09437561 0.02015686 C15.76532834 0.02395423 19.43624079 0.03376043 23.10717773 0.04486084 C26.8612412 0.05513508 30.61531125 0.0596673 34.36938477 0.06469727 C41.72031448 0.07538549 49.07121114 0.09242807 56.42211914 0.11352539 C56.91711914 1.10352539 56.91711914 1.10352539 57.42211914 2.11352539 C22.77211914 2.60852539 22.77211914 2.60852539 -12.57788086 3.11352539 C-12.90788086 2.45352539 -13.23788086 1.79352539 -13.57788086 1.11352539 C-9.00594675 0.38396456 -4.62802971 -0.00931193 0 0 Z " fill="#FCFDFD" transform="translate(681.577880859375,662.886474609375)"/>
<path d="M0 0 C0.33 0.66 0.66 1.32 1 2 C-3.43634709 3.0051621 -7.87425658 4.00324731 -12.3125 5 C-13.57513672 5.28617188 -14.83777344 5.57234375 -16.13867188 5.8671875 C-17.34716797 6.13789062 -18.55566406 6.40859375 -19.80078125 6.6875 C-20.91622314 6.93886719 -22.03166504 7.19023438 -23.1809082 7.44921875 C-26 8 -26 8 -29 8 C-28.67 7.01 -28.34 6.02 -28 5 C-26.17749023 4.20043945 -26.17749023 4.20043945 -23.80859375 3.61328125 C-22.51405273 3.2894043 -22.51405273 3.2894043 -21.19335938 2.95898438 C-19.82920898 2.63897461 -19.82920898 2.63897461 -18.4375 2.3125 C-17.55513672 2.08755859 -16.67277344 1.86261719 -15.76367188 1.63085938 C-10.36795965 0.31881997 -5.54872637 -0.23955995 0 0 Z " fill="#FAFAFB" transform="translate(651,667)"/>
<path d="M0 0 C2.50351087 2.50351087 2.30337229 3.46952618 2.44921875 6.9375 C2.51399414 8.40316406 2.51399414 8.40316406 2.58007812 9.8984375 C2.61552734 10.92195312 2.65097656 11.94546875 2.6875 13 C2.73455078 14.02351562 2.78160156 15.04703125 2.83007812 16.1015625 C3.13687614 23.72624771 3.13687614 23.72624771 2 26 C1.34 26 0.68 26 0 26 C0 17.42 0 8.84 0 0 Z " fill="#FCFCFD" transform="translate(252,620)"/>
<path d="M0 0 C0.66 0.33 1.32 0.66 2 1 C2 1.66 2 2.32 2 3 C-1.77222089 4.75163456 -4.666639 5.22490027 -8.8125 5.125 C-10.27623047 5.09792969 -10.27623047 5.09792969 -11.76953125 5.0703125 C-12.50558594 5.04710937 -13.24164062 5.02390625 -14 5 C-13.67 4.34 -13.34 3.68 -13 3 C-10.56640625 2.40234375 -10.56640625 2.40234375 -7.5625 1.9375 C-3.65106811 1.37614082 -3.65106811 1.37614082 0 0 Z " fill="#FCFCFC" transform="translate(758,660)"/>
<path d="M0 0 C-2.64833708 2.64833708 -4.31108361 2.44850203 -8 2.75 C-9.0725 2.84796875 -10.145 2.9459375 -11.25 3.046875 C-14 3 -14 3 -16 1 C-14.0852312 0.63571223 -12.16807707 0.28394694 -10.25 -0.0625 C-9.18265625 -0.25972656 -8.1153125 -0.45695313 -7.015625 -0.66015625 C-4.25228095 -0.97156937 -2.59053383 -0.8991416 0 0 Z " fill="#EAEFF7" transform="translate(784,901)"/>
<path d="M0 0 C2.17944188 3.26916282 2.23305854 3.86280386 1.8125 7.5625 C1.73644531 8.34753906 1.66039062 9.13257813 1.58203125 9.94140625 C1 12 1 12 -2 14 C-1.03644647 4.58997722 -1.03644647 4.58997722 0 0 Z " fill="#E7ECF4" transform="translate(906,771)"/>
<path d="M0 0 C0 0.66 0 1.32 0 2 C-2.31 2.66 -4.62 3.32 -7 4 C-6.67 3.01 -6.34 2.02 -6 1 C-3 0 -3 0 0 0 Z " fill="#FBFBFB" transform="translate(606,678)"/>
</svg>
